<?xml version="1.0" standalone="no"?>
<!DOCTYPE svg PUBLIC "-//W3C//DTD SVG 20010904//EN"
 "http://www.w3.org/TR/2001/REC-SVG-20010904/DTD/svg10.dtd">
<svg version="1.0" xmlns="http://www.w3.org/2000/svg"
 width="376.000000pt" height="375.000000pt" viewBox="0 0 376.000000 375.000000"
 preserveAspectRatio="xMidYMid meet">
<metadata>
Created by potrace 1.16, written by Peter Selinger 2001-2019
</metadata>
<g transform="translate(0.000000,375.000000) scale(0.100000,-0.100000)"
fill="#000000" stroke="none">
<path d="M1820 3349 c-16 -29 -7 -46 37 -66 l38 -18 3 -221 2 -221 -77 -6
c-43 -4 -111 -16 -152 -27 -40 -11 -75 -19 -76 -18 -8 7 -85 210 -85 221 0 8
11 23 25 35 29 25 30 31 11 57 -13 18 -17 19 -53 6 -81 -29 -124 -51 -129 -66
-9 -24 15 -45 51 -45 18 0 37 -6 42 -12 5 -7 28 -59 51 -116 l41 -102 -52 -27
c-61 -30 -154 -92 -201 -133 l-33 -29 -151 153 c-84 84 -152 160 -152 170 0 9
7 27 16 41 12 18 13 28 4 44 -20 38 -52 25 -124 -49 -60 -61 -66 -72 -56 -90
16 -30 38 -35 71 -16 21 12 34 14 46 7 10 -5 83 -75 162 -154 l143 -145 -50
-63 c-27 -35 -66 -94 -86 -130 l-37 -67 -102 45 c-56 25 -108 50 -114 55 -7 6
-13 25 -13 43 0 36 -19 58 -43 50 -18 -7 -79 -140 -75 -163 2 -8 11 -20 20
-26 14 -8 23 -5 46 17 15 15 31 27 35 27 4 0 57 -21 118 -47 87 -37 108 -50
103 -62 -15 -34 -53 -199 -59 -254 l-6 -57 -222 2 -222 3 -11 35 c-10 31 -16
35 -45 35 l-34 0 0 -104 c0 -88 3 -106 18 -115 21 -14 50 2 56 30 1 10 10 27
19 37 13 15 38 17 227 17 l212 0 13 -92 c7 -51 21 -120 31 -153 10 -32 17 -60
15 -62 -11 -11 -204 -83 -222 -83 -13 0 -28 9 -34 21 -14 25 -63 23 -68 -4 -5
-25 49 -158 66 -165 24 -9 47 13 48 47 1 18 5 36 10 41 10 10 201 90 215 90 4
0 25 -33 48 -74 22 -41 63 -102 91 -137 27 -34 50 -65 50 -69 0 -3 -67 -72
-148 -153 -115 -114 -154 -147 -175 -147 -14 0 -29 4 -32 10 -3 5 -17 10 -30
10 -30 0 -50 -32 -36 -58 15 -28 128 -132 144 -132 8 0 22 9 32 20 18 20 18
22 2 49 -9 16 -17 35 -17 43 0 7 69 82 153 165 l152 152 70 -54 c39 -30 96
-69 128 -85 31 -17 57 -33 57 -36 0 -10 -83 -200 -92 -211 -6 -7 -25 -13 -43
-13 -36 0 -60 -21 -51 -45 8 -21 131 -77 160 -73 30 4 35 53 7 68 -12 6 -21
19 -21 29 0 22 85 222 94 222 3 0 37 -9 74 -21 37 -11 109 -26 160 -32 l92
-12 0 -217 c0 -231 0 -230 -52 -243 -35 -8 -46 -41 -22 -68 17 -18 29 -19 106
-16 64 2 92 7 104 19 22 23 10 57 -24 65 -52 13 -52 12 -52 244 l0 217 71 7
c39 4 103 16 142 26 40 11 77 20 83 20 12 0 94 -193 94 -222 0 -9 -12 -25 -26
-35 -20 -15 -25 -25 -20 -40 4 -12 13 -24 21 -27 21 -8 169 57 173 76 4 23
-26 49 -51 43 -12 -3 -28 -1 -35 3 -6 5 -32 57 -56 118 l-44 109 72 37 c39 21
103 63 141 93 l69 56 153 -153 c84 -84 153 -159 153 -166 0 -7 -7 -27 -16 -43
-14 -28 -14 -32 2 -50 9 -10 23 -19 31 -19 16 0 129 104 144 132 14 26 -6 58
-36 58 -13 0 -27 -4 -30 -10 -3 -5 -18 -10 -33 -10 -22 0 -58 30 -176 149
-106 106 -146 153 -140 162 4 8 27 37 50 66 23 28 59 81 79 117 28 50 40 63
53 59 9 -4 60 -25 112 -48 94 -41 95 -42 96 -77 1 -45 10 -58 38 -58 19 0 29
13 56 76 25 57 31 80 23 93 -15 24 -50 26 -63 2 -15 -29 -46 -26 -139 14 -133
56 -123 46 -100 113 17 48 49 218 49 260 0 9 48 12 208 12 222 0 247 -5 254
-52 4 -29 33 -46 56 -32 14 9 17 27 17 115 l0 104 -34 0 c-29 0 -35 -4 -45
-35 l-11 -35 -222 -3 -222 -2 -6 57 c-4 32 -15 94 -27 138 -11 44 -20 86 -21
94 -1 10 36 30 111 60 l112 45 29 -28 c33 -31 71 -29 71 5 0 32 -51 149 -70
159 -26 14 -49 -9 -52 -54 l-3 -38 -110 -44 c-60 -24 -110 -44 -112 -44 -1 0
-18 30 -37 68 -20 37 -61 100 -92 141 l-55 74 143 144 c79 79 151 149 161 154
13 8 25 6 42 -5 14 -9 31 -16 38 -16 14 0 47 31 47 44 0 4 -30 39 -67 77 -71
73 -103 86 -123 48 -9 -16 -8 -26 4 -44 9 -14 16 -32 16 -41 0 -10 -68 -86
-151 -170 l-152 -153 -59 48 c-52 42 -164 115 -192 124 -13 4 82 226 98 229 6
1 24 2 40 2 31 1 53 25 43 48 -3 9 -40 30 -82 47 -60 26 -79 30 -91 20 -20
-16 -17 -43 6 -64 11 -10 20 -26 20 -35 0 -17 -76 -199 -88 -212 -4 -4 -45 5
-92 18 -47 14 -120 28 -163 31 l-77 6 2 221 3 221 38 18 c44 20 53 37 37 66
-10 19 -20 21 -110 21 -90 0 -100 -2 -110 -21z m339 -615 c52 -13 96 -26 99
-29 3 -3 -4 -28 -15 -55 -21 -49 -21 -51 -3 -60 28 -15 29 -14 51 37 11 26 22
49 24 51 4 5 88 -43 135 -77 63 -46 124 -102 173 -159 50 -59 137 -197 137
-218 0 -7 -22 -20 -50 -29 -54 -18 -57 -22 -37 -49 12 -16 15 -16 60 3 55 24
55 24 81 -80 36 -148 31 -327 -16 -478 -11 -36 -21 -67 -23 -69 -2 -2 -21 6
-44 17 -50 26 -58 26 -71 1 -10 -19 -6 -23 40 -42 61 -25 61 -28 -15 -143 -82
-123 -220 -246 -352 -314 l-43 -21 -15 36 c-8 20 -15 40 -15 45 0 14 -19 21
-40 14 -19 -6 -19 -7 1 -57 24 -60 25 -59 -76 -85 -54 -14 -106 -18 -225 -17
-134 1 -166 4 -235 25 -88 27 -91 31 -64 97 12 28 12 34 -1 42 -25 16 -30 12
-52 -40 l-20 -49 -32 16 c-111 57 -249 176 -321 278 -36 51 -95 155 -95 168 0
3 23 14 50 26 45 19 49 24 40 41 -13 24 -13 24 -67 4 -24 -9 -46 -15 -48 -12
-3 2 -15 40 -27 84 -17 63 -21 107 -21 219 -1 137 8 196 46 303 12 35 21 35
81 5 24 -12 30 -13 37 -1 16 25 9 37 -36 57 -25 11 -45 23 -45 27 0 4 18 37
39 73 80 134 223 273 343 333 77 39 79 39 99 -12 14 -37 21 -45 40 -42 13 1
24 4 26 6 2 2 -6 25 -17 51 -11 27 -17 52 -13 56 13 12 133 41 208 49 99 10
215 1 324 -26z"/>
<path d="M2357 2295 c-20 -14 -44 -40 -53 -58 l-17 -32 37 33 c42 36 87 42
140 17 42 -20 66 -63 66 -119 0 -62 -38 -106 -101 -116 -41 -6 -42 -7 -16 -14
70 -20 167 39 187 115 38 139 -124 255 -243 174z"/>
<path d="M1842 1984 c-32 -16 -82 -71 -82 -89 0 -5 13 4 29 19 57 55 149 42
191 -27 45 -73 11 -159 -75 -190 l-50 -18 58 4 c117 7 188 114 144 218 -33 80
-141 121 -215 83z"/>
<path d="M2355 1469 c-29 -17 -65 -51 -65 -61 0 -5 12 0 26 11 60 47 140 12
151 -66 5 -37 2 -45 -25 -73 -19 -18 -41 -30 -59 -31 -28 -1 -28 -1 -3 -8 37
-11 81 5 113 39 61 68 15 185 -78 196 -22 2 -49 -1 -60 -7z"/>
</g>
</svg>
